<svg xmlns="http://www.w3.org/2000/svg" viewBox="0 0 100 100">
  <!-- Tyranid Hive Fleet Symbol - Bio-organic claw/talon shape -->
  <path fill="currentColor" d="M50 5 C55 15 60 25 65 30 C75 35 85 40 90 50 C85 55 75 60 65 65 C60 75 55 85 50 95 C45 85 40 75 35 65 C25 60 15 55 10 50 C15 40 25 35 35 30 C40 25 45 15 50 5 Z"/>
  <path fill="currentColor" d="M50 25 L55 40 L70 45 L55 55 L55 70 L50 55 L45 70 L45 55 L30 45 L45 40 Z" opacity="0.7"/>
  <circle cx="50" cy="45" r="5" fill="currentColor"/>
</svg>